<svg viewBox="0 0 900 500" xmlns="http://www.w3.org/2000/svg" preserveAspectRatio="xMidYMax slice">
  <g fill="#0d3b2e">
    <rect x="0" y="300" width="900" height="200"/>
    <rect x="40" y="220" width="70" height="180"/>
    <rect x="120" y="180" width="50" height="220"/>
    <circle cx="145" cy="165" r="18"/>
    <path d="M 200 300 L 200 230 Q 260 170 320 230 L 320 300 Z"/>
    <circle cx="260" cy="150" r="34"/>
    <rect x="248" y="95" width="24" height="60"/>
    <circle cx="260" cy="90" r="9"/>
    <rect x="360" y="250" width="60" height="150"/>
    <rect x="440" y="200" width="80" height="200"/>
    <path d="M 440 200 Q 480 150 520 200 Z"/>
    <rect x="540" y="240" width="40" height="160"/>
    <circle cx="560" cy="220" r="14"/>
    <path d="M 620 300 L 620 235 Q 680 175 740 235 L 740 300 Z"/>
    <circle cx="680" cy="155" r="36"/>
    <rect x="668" y="98" width="24" height="60"/>
    <circle cx="680" cy="93" r="9"/>
    <rect x="780" y="260" width="55" height="140"/>
    <rect x="840" y="220" width="45" height="180"/>
  </g>
</svg>
